<?xml version="1.0" encoding="iso-8859-1"?>
<!-- Generator: Adobe Illustrator 19.0.0, SVG Export Plug-In . SVG Version: 6.00 Build 0)  -->
<svg version="1.1" id="Capa_1" xmlns="http://www.w3.org/2000/svg" xmlns:xlink="http://www.w3.org/1999/xlink" x="0px" y="0px"
	 viewBox="0 0 496 496" style="enable-background:new 0 0 496 496;" xml:space="preserve">
<g>
	<g>
		<path d="M432,104H64c-35.2,0-64,28.8-64,64v216c0,4.8,3.2,8,8,8h32c2.4,0,4-0.8,5.6-2.4l77.6-77.6h249.6l77.6,77.6
			c1.6,1.6,3.2,2.4,5.6,2.4h32c4.8,0,8-3.2,8-8V168C496,132.8,467.2,104,432,104z M112,300.8l-64,64v-25.6l64-64V300.8z M112,252.8
			l-64,64v-25.6l64-64V252.8z M48,268.8v-25.6l57.6-57.6c4,5.6,6.4,12,6.4,19.2L48,268.8z M90.4,174.4c0.8,0,1.6,0.8,3.2,1.6
			L48,220.8V168c0-2.4,0.8-4.8,1.6-7.2L90.4,174.4z M73.6,152h43.2l-12,12c-3.2-1.6-6.4-3.2-9.6-4.8L73.6,152z M116.8,174.4
			l22.4-22.4h25.6l-39.2,39.2C124,184.8,120.8,180,116.8,174.4z M187.2,152h25.6L128,236.8v-25.6L187.2,152z M128,259.2L235.2,152
			h25.6L128,284.8V259.2z M139.2,296l144-144h25.6l-144,144H139.2z M187.2,296l144-144h25.6l-144,144H187.2z M368,296h-36.8
			l36.8-36.8V296z M368,236.8L308.8,296h-25.6l84.8-84.8V236.8z M372.8,184l-112,112h-25.6l144-144h43.2l-21.6,7.2
			C388.8,163.2,378.4,172,372.8,184z M448,364.8l-64-64v-25.6l64,64V364.8z M448,316.8l-64-64v-25.6l64,64V316.8z M448,268.8l-64-64
			c0-7.2,2.4-13.6,6.4-19.2l57.6,57.6V268.8z M448.8,220.8L403.2,176c0.8-0.8,1.6-0.8,3.2-1.6l40.8-13.6c0.8,2.4,1.6,4.8,1.6,7.2
			V220.8z M480,376h-16V168c0-17.6-14.4-32-32-32H64c-17.6,0-32,14.4-32,32v208H16V168c0-26.4,21.6-48,48-48h368
			c26.4,0,48,21.6,48,48V376z"/>
	</g>
</g>
<g>
</g>
<g>
</g>
<g>
</g>
<g>
</g>
<g>
</g>
<g>
</g>
<g>
</g>
<g>
</g>
<g>
</g>
<g>
</g>
<g>
</g>
<g>
</g>
<g>
</g>
<g>
</g>
<g>
</g>
</svg>
